<svg width="860" height="240" viewBox="0 0 860 240" fill="none" xmlns="http://www.w3.org/2000/svg">
  <defs>
    <linearGradient id="logoGold" x1="70" y1="34" x2="332" y2="171" gradientUnits="userSpaceOnUse">
      <stop stop-color="#F6D992"/>
      <stop offset="0.52" stop-color="#D9A84F"/>
      <stop offset="1" stop-color="#B5792C"/>
    </linearGradient>
  </defs>
  <rect width="860" height="240" rx="30" fill="#0F1C2F"/>

  <g transform="translate(46 26)">
    <path
      d="M42 82L100 24L158 82"
      stroke="url(#logoGold)"
      stroke-width="9"
      stroke-linecap="round"
      stroke-linejoin="round"
    />
    <path
      d="M58 92C65 104 77 110 90 110C100 110 108 106 115 99L100 80L85 99C78 106 70 110 60 110C49 110 39 105 31 95"
      stroke="url(#logoGold)"
      stroke-width="8.2"
      stroke-linecap="round"
      stroke-linejoin="round"
    />
    <path
      d="M84 84L100 68L116 84"
      stroke="url(#logoGold)"
      stroke-width="8.2"
      stroke-linecap="round"
      stroke-linejoin="round"
    />
    <path d="M94 63L100 57L106 63L100 69L94 63Z" fill="url(#logoGold)"/>
    <path d="M100 68V97" stroke="url(#logoGold)" stroke-width="7" stroke-linecap="round"/>
    <rect x="90.5" y="96" width="19" height="19" rx="2.5" fill="url(#logoGold)"/>
    <path d="M100 96V115" stroke="#0F1C2F" stroke-width="2.3"/>
    <path d="M90.5 105.5H109.5" stroke="#0F1C2F" stroke-width="2.3"/>
  </g>

  <text x="228" y="134" fill="#F4E5C6" font-family="Georgia, 'Times New Roman', serif" font-size="58" font-weight="700">
    Space Shastra Interiors
  </text>
  <text x="230" y="177" fill="#D8C39A" font-family="Segoe UI, Arial, sans-serif" font-size="28" font-weight="500" letter-spacing="2">
    DESIGN WITH STYLE
  </text>
</svg>
